0
SECTION
2
HEADER
9
$INSUNITS
70
4
9
$ACADVER
1
AC1014
9
$HANDSEED
5
FFFF
0
ENDSEC
0
SECTION
2
TABLES
0
TABLE
2
VPORT
5
8
100
AcDbSymbolTable
0
ENDTAB
0
TABLE
2
LTYPE
5
5
100
AcDbSymbolTable
0
LTYPE
5
14
100
AcDbSymbolTableRecord
100
AcDbLinetypeTableRecord
2
BYBLOCK
70
0
0
LTYPE
5
15
100
AcDbSymbolTableRecord
100
AcDbLinetypeTableRecord
2
BYLAYER
70
0
0
ENDTAB
0
TABLE
2
LAYER
5
2
100
AcDbSymbolTable
70
2
0
LAYER
5
50
100
AcDbSymbolTableRecord
100
AcDbLayerTableRecord
2
0
70
0
6
CONTINUOUS
0
ENDTAB
0
TABLE
2
STYLE
5
3
100
AcDbSymbolTable
70
1
0
STYLE
5
11
100
AcDbSymbolTableRecord
100
AcDbTextStyleTableRecord
2
STANDARD
70
0
0
ENDTAB
0
TABLE
2
VIEW
5
6
100
AcDbSymbolTable
70
0
0
ENDTAB
0
TABLE
2
UCS
5
7
100
AcDbSymbolTable
70
0
0
ENDTAB
0
TABLE
2
APPID
5
9
100
AcDbSymbolTable
70
2
0
APPID
5
12
100
AcDbSymbolTableRecord
100
AcDbRegAppTableRecord
2
ACAD
70
0
0
ENDTAB
0
TABLE
2
DIMSTYLE
5
A
100
AcDbSymbolTable
70
1
0
ENDTAB
0
TABLE
2
BLOCK_RECORD
5
1
100
AcDbSymbolTable
70
1
0
BLOCK_RECORD
5
1F
100
AcDbSymbolTableRecord
100
AcDbBlockTableRecord
2
*MODEL_SPACE
0
BLOCK_RECORD
5
1B
100
AcDbSymbolTableRecord
100
AcDbBlockTableRecord
2
*PAPER_SPACE
0
ENDTAB
0
ENDSEC
0
SECTION
2
BLOCKS
0
BLOCK
5
20
100
AcDbEntity
100
AcDbBlockBegin
2
*MODEL_SPACE
0
ENDBLK
5
21
100
AcDbEntity
100
AcDbBlockEnd
0
BLOCK
5
1C
100
AcDbEntity
100
AcDbBlockBegin
2
*PAPER_SPACE
0
ENDBLK
5
1D
100
AcDbEntity
100
AcDbBlockEnd
0
ENDSEC
0
SECTION
2
ENTITIES
0
LWPOLYLINE
5
100
100
AcDbEntity
8
0
100
AcDbPolyline
90
4
70
1
43
0.0
10
-441.89284437060593
20
-256.80687876490003
10
-391.89284437060587
20
-256.80687876489998
10
-391.89284437060593
20
-253.80687876489998
10
-441.89284437060599
20
-253.80687876490003
0
LWPOLYLINE
5
101
100
AcDbEntity
8
0
100
AcDbPolyline
90
16
70
1
43
0.0
10
-471.8928443706061
20
-235.80687876490003
42
-0.41421356237309404
10
-461.8928443706061
20
-225.80687876490003
10
-371.89284437060587
20
-225.80687876489998
42
-0.4142135623730992
10
-361.89284437060587
20
-235.80687876489998
10
-361.89284437060576
20
-255.80687876490001
42
-0.41421356237309298
10
-371.89284437060576
20
-265.80687876489998
10
-376.89284437060576
20
-265.80687876489998
42
-0.41421356237309814
10
-386.89284437060587
20
-255.80687876489998
10
-386.89284437060587
20
-254.08900900575674
42
0.41421356237308665
10
-391.89284437060576
20
-249.08900900575679
10
-441.89284437060593
20
-249.08900900575676
42
0.4142135623730992
10
-446.89284437060599
20
-254.08900900575679
10
-446.8928443706061
20
-255.80687876490003
42
-0.41421356237309603
10
-456.89284437060599
20
-265.80687876490003
10
-461.89284437060599
20
-265.80687876490009
42
-0.41421356237309709
10
-471.8928443706061
20
-255.80687876490009
0
LWPOLYLINE
5
102
100
AcDbEntity
8
0
100
AcDbPolyline
90
40
70
1
43
0.0
10
-538.89284437060621
20
-223.80687876490015
10
-541.89284437060621
20
-223.80687876490015
10
-541.89284437060621
20
-215.80687876490009
10
-526.89284437060621
20
-215.80687876490015
10
-526.89284437060633
20
-212.80687876490009
10
-496.89284437060621
20
-212.80687876490009
10
-496.89284437060621
20
-215.80687876490009
10
-336.89284437060587
20
-215.80687876489992
10
-336.89284437060587
20
-212.80687876489995
10
-306.89284437060576
20
-212.80687876489989
10
-306.89284437060576
20
-215.80687876489989
10
-291.89284437060576
20
-215.80687876489986
10
-291.89284437060576
20
-223.80687876489992
10
-294.8928443706057
20
-223.80687876489992
10
-294.8928443706057
20
-237.80687876489992
10
-291.8928443706057
20
-237.80687876489989
10
-291.8928443706057
20
-245.80687876489989
10
-309.78138819060405
20
-254.75115067489901
10
-308.43974740410414
20
-257.43443224789883
10
-332.6626597641075
20
-269.54588842790054
10
-334.00430055060747
20
-266.86260685490078
10
-351.8928443706057
20
-275.80687876489998
10
-351.89284437060576
20
-245.80687876489998
10
-354.89284437060581
20
-245.80687876489998
10
-354.89284437060576
20
-275.80687876489992
10
-386.89284437060576
20
-275.80687876489998
10
-386.89284437060576
20
-278.80687876489998
10
-446.89284437060593
20
-278.80687876490003
10
-446.89284437060593
20
-275.80687876489998
10
-478.89284437060604
20
-275.80687876490003
10
-478.8928443706061
20
-245.80687876490003
10
-481.8928443706061
20
-245.80687876490003
10
-481.8928443706061
20
-275.80687876490003
10
-499.78138819060439
20
-266.86260685490089
10
-501.1230289771043
20
-269.54588842790076
10
-525.34594133710766
20
-257.43443224789905
10
-524.00430055060781
20
-254.75115067489926
10
-541.89284437060621
20
-245.80687876490015
10
-541.8928443706061
20
-237.80687876490015
10
-538.89284437060621
20
-237.80687876490015
0
LWPOLYLINE
5
103
100
AcDbEntity
8
0
100
AcDbPolyline
90
4
70
1
43
0.0
10
-384.38491353922495
20
-365.11439086866039
10
-434.38491353922524
20
-365.11439086866039
10
-434.38491353922529
20
-368.11439086866045
10
-384.38491353922501
20
-368.11439086866045
0
LWPOLYLINE
5
104
100
AcDbEntity
8
0
100
AcDbPolyline
90
4
70
1
43
0.0
10
-324.12302280190966
20
-335.61565488708391
10
-324.12302280190966
20
-342.21565488708393
10
-304.62302280190954
20
-342.21565488708393
10
-304.62302280190954
20
-335.61565488708391
0
LWPOLYLINE
5
105
100
AcDbEntity
8
0
100
AcDbPolyline
90
40
70
1
43
0.0
10
-534.38491353922586
20
-349.11439086866034
10
-531.38491353922586
20
-349.11439086866034
10
-531.38491353922586
20
-335.11439086866028
10
-534.38491353922575
20
-335.11439086866028
10
-534.38491353922586
20
-327.11439086866022
10
-519.38491353922575
20
-327.11439086866022
10
-519.38491353922575
20
-324.11439086866017
10
-489.38491353922564
20
-324.11439086866017
10
-489.38491353922564
20
-327.11439086866022
10
-329.38491353922473
20
-327.11439086866028
10
-329.38491353922473
20
-324.11439086866028
10
-299.38491353922456
20
-324.11439086866017
10
-299.3849135392245
20
-327.11439086866022
10
-284.3849135392245
20
-327.11439086866022
10
-284.3849135392245
20
-335.11439086866028
10
-287.3849135392245
20
-335.11439086866028
10
-287.38491353922439
20
-349.11439086866034
10
-284.38491353922439
20
-349.11439086866034
10
-284.38491353922439
20
-357.11439086866045
10
-302.27345735922273
20
-366.0586627786596
10
-300.93181657272288
20
-368.7419443516593
10
-325.15472893272636
20
-380.85340053166107
10
-326.49636971922627
20
-378.17011895866131
10
-344.38491353922467
20
-387.11439086866051
10
-344.38491353922473
20
-357.11439086866039
10
-347.38491353922478
20
-357.11439086866045
10
-347.38491353922461
20
-387.11439086866056
10
-379.38491353922478
20
-387.11439086866051
10
-379.38491353922484
20
-390.11439086866056
10
-439.38491353922524
20
-390.11439086866062
10
-439.38491353922524
20
-387.11439086866051
10
-471.38491353922541
20
-387.11439086866051
10
-471.38491353922547
20
-357.11439086866039
10
-474.38491353922552
20
-357.11439086866039
10
-474.38491353922535
20
-387.11439086866056
10
-492.27345735922381
20
-378.17011895866136
10
-493.61509814572372
20
-380.85340053166112
10
-517.83801050572731
20
-368.74194435165941
10
-516.49636971922735
20
-366.0586627786596
10
-534.38491353922575
20
-357.11439086866039
0
LWPOLYLINE
5
106
100
AcDbEntity
8
0
100
AcDbPolyline
90
16
70
1
43
0.0
10
-354.38491353922473
20
-367.11439086866045
42
-0.41421356237309509
10
-364.38491353922478
20
-377.11439086866051
10
-369.38491353922484
20
-377.11439086866056
42
-0.41421356237308882
10
-379.38491353922495
20
-367.11439086866045
10
-379.38491353922484
20
-365.39652110951721
42
0.41421356237309087
10
-384.38491353922495
20
-360.39652110951721
10
-434.38491353922529
20
-360.39652110951721
42
0.41421356237309087
10
-439.38491353922524
20
-365.39652110951721
10
-439.38491353922524
20
-367.11439086866045
42
-0.41421356237309509
10
-449.38491353922529
20
-377.11439086866051
10
-454.38491353922535
20
-377.11439086866051
42
-0.41421356237309509
10
-464.38491353922541
20
-367.11439086866045
10
-464.38491353922552
20
-347.11439086866028
42
-0.41421356237309509
10
-454.38491353922541
20
-337.11439086866022
10
-364.38491353922484
20
-337.11439086866028
42
-0.41421356237309509
10
-354.38491353922484
20
-347.11439086866028
0
ENDSEC
0
SECTION
2
OBJECTS
0
DICTIONARY
5
C
100
AcDbDictionary
3
ACAD_GROUP
350
D
3
ACAD_MLINESTYLE
350
17
0
DICTIONARY
5
D
100
AcDbDictionary
0
DICTIONARY
5
1A
330
C
100
AcDbDictionary
0
DICTIONARY
5
17
100
AcDbDictionary
0
ENDSEC
0
EOF
